<svg xmlns="http://www.w3.org/2000/svg" viewBox="0 0 3026.65 3026.65">
  <defs>
    <style>
      .cls-1{fill:#00e2cc;}.cls-2{fill:#e984ef;}.cls-3{fill:#00b2ff;}.cls-4{fill:#ff9d00;}.cls-5{fill:#b820ff;}.cls-6{fill:#f2da00;}.cls-7{fill:#ff402c;}.cls-8{fill:#65c949;}.cls-9{fill:#0086b8;}
    </style>
  </defs>
  <title>background</title>
  <g id="Layer_2" data-name="Layer 2">
    <g id="Layer_1-2" data-name="Layer 1">
      <polygon class="cls-1" points="2924.68 1997.18 2908.84 3026.65 3026.65 3026.65 3026.65 1890.87 2924.68 1997.18"/>
      <polygon class="cls-1" points="1113.02 3026.65 1641.74 3026.65 1367.31 2932.96 1113.02 3026.65"/>
      <polygon class="cls-1" points="3026.65 328.7 3026.65 0 2554.45 0 2572.66 58.23 3026.65 328.7"/>
      <polygon class="cls-2" points="849.84 0 582.24 0 758.14 88.38 849.84 0"/>
      <polygon class="cls-2" points="3026.65 1890.87 3026.65 1454.05 2527.43 1974.42 2511.19 3026.65 2908.84 3026.65 2924.68 1997.18 3026.65 1890.87"/>
      <polygon class="cls-2" points="522.34 3026.65 1113.02 3026.65 1367.31 2932.96 1641.74 3026.65 1888.2 3026.65 1179.33 2784.58 522.34 3026.65"/>
      <polygon class="cls-2" points="3026.65 774.77 3026.65 328.7 2572.66 58.23 2554.45 0 2130.28 0 2222.7 295.87 3026.65 774.77"/>
      <polygon class="cls-3" points="3026.65 1454.05 3026.65 774.77 2222.7 295.87 2130.28 0 1656.81 0 1831.07 558.04 2833.64 1155.09 2081.71 1939.24 2065.75 2979.07 972.43 2605.76 0 2964.04 0 3026.65 522.34 3026.65 1179.33 2784.58 1888.2 3026.65 2511.19 3026.65 2527.43 1974.42 3026.65 1454.05"/>
      <polygon class="cls-3" points="1027.7 0 849.84 0 758.14 88.38 582.24 0 0 0 0 72.71 626.02 387.2 1027.7 0"/>
      <polygon class="cls-4" points="2065.75 2979.07 2081.71 1939.24 2833.64 1155.09 1831.07 558.04 1656.81 0 1027.7 0 626.02 387.2 0 72.71 0 460.97 487.69 706.12 1178.15 40.49 1427.91 839.13 2209.99 1305.24 1623.58 1916.78 1610.87 2727.83 758.14 2436.69 0 2715.96 0 2964.04 972.43 2605.76 2065.75 2979.07"/>
      <polygon class="cls-5" points="1610.87 2727.83 1623.58 1916.78 2209.99 1305.24 1427.91 839.13 1178.15 40.49 487.69 706.12 0 460.97 0 800.97 357.35 980.41 873.71 482.67 1060.51 1080.02 1645.45 1428.5 1206.82 1886.04 1197.36 2492.85 559.52 2275.01 0 2481.2 0 2715.96 758.14 2436.69 1610.87 2727.83"/>
      <polygon class="cls-6" points="1197.36 2492.85 1206.82 1886.04 1645.45 1428.5 1060.51 1080.02 873.71 482.67 357.35 980.41 0 800.97 0 1105.79 250.35 1231.65 610.36 884.65 740.41 1301.11 1148.3 1543.77 842.38 1862.69 835.88 2285.36 391.34 2133.73 0 2277.74 0 2481.2 559.52 2275.01 1197.36 2492.85"/>
      <polygon class="cls-7" points="835.88 2285.36 842.38 1862.69 1148.3 1543.77 740.41 1301.11 610.36 884.65 250.35 1231.65 0 1105.79 0 1330.19 165.22 1413.13 413.5 1174.01 503.06 1461.01 783.86 1628.3 573.41 1847.91 568.68 2139.35 262.47 2034.71 0 2131.4 0 2277.74 391.34 2133.73 835.88 2285.36"/>
      <polygon class="cls-8" points="568.68 2139.35 573.41 1847.91 783.86 1628.3 503.06 1461.01 413.5 1174.01 165.22 1413.13 0 1330.19 0 1545.24 86.31 1588.7 224.34 1455.39 274.29 1615.3 430.65 1708.4 313.31 1830.47 310.65 1992.74 140.4 1934.52 0 1986.21 0 2131.4 262.47 2034.71 568.68 2139.35"/>
      <polygon class="cls-9" points="310.65 1992.74 313.31 1830.47 430.65 1708.4 274.29 1615.3 224.34 1455.39 86.31 1588.7 0 1545.24 0 1986.21 140.4 1934.52 310.65 1992.74"/>
    </g>
  </g>
</svg>
