<?xml version="1.0" encoding="utf-8"?>
<!-- Generator: Adobe Illustrator 21.1.0, SVG Export Plug-In . SVG Version: 6.00 Build 0)  -->
<svg version="1.1" id="Layer_1" xmlns="http://www.w3.org/2000/svg" xmlns:xlink="http://www.w3.org/1999/xlink" x="0px" y="0px"
	 viewBox="0 0 1024 1024" style="enable-background:new 0 0 1024 1024;" xml:space="preserve">
<style type="text/css">
	.st0{clip-path:url(#SVGID_2_);}
	.st1{clip-path:url(#SVGID_4_);}
	.st2{fill:#00E2CC;}
	.st3{fill:#E984EF;}
	.st4{fill:#00B2FF;}
	.st5{fill:#FF9D00;}
	.st6{fill:#B820FF;}
	.st7{fill:#F2DA00;}
	.st8{fill:#FF402C;}
	.st9{fill:#65C949;}
	.st10{fill:#0086B8;}
	.st11{enable-background:new    ;}
	.st12{fill:#0F0F0F;}
</style>
<title>logo_1</title>
<g>
	<g id="Layer_2">
		<defs>
			<path id="SVGID_1_" d="M99-0.2h825c55,0,99.5,44.6,99.5,99.5v825c0,55-44.6,99.5-99.5,99.5H99c-55,0-99.5-44.6-99.5-99.5v-825
				C-0.5,44.4,44-0.2,99-0.2z"/>
		</defs>
		<clipPath id="SVGID_2_">
			<use xlink:href="#SVGID_1_"  style="overflow:visible;"/>
		</clipPath>
		<g id="Layer_1-2" class="st0">
			<g>
				<defs>
					<rect id="SVGID_3_" width="1024" height="1024"/>
				</defs>
				<clipPath id="SVGID_4_">
					<use xlink:href="#SVGID_3_"  style="overflow:visible;"/>
				</clipPath>
				<g class="st1">
					<polygon class="st2" points="-156.9,157.3 -230.6,-426.5 333.4,-143.1 803.8,-596.5 973.8,-52.4 1506.6,265 1107,681.6 
						1098.5,1234.2 517.6,1035.8 -20.8,1234.2 -3.8,613.6 -635.8,412.4 					"/>
					<polygon class="st3" points="-140.2,207.1 -206.1,-314.7 298,-61.4 718.4,-466.6 870.4,19.7 1346.6,303.4 989.5,675.7 
						981.9,1169.6 462.6,992.3 -18.6,1169.6 -3.4,614.9 -568.3,435.1 					"/>
					<polygon class="st4" points="-122.8,262.4 -179.8,-189.3 256.5,29.9 620.5,-320.9 752,100.1 1164.3,345.7 855.1,668 
						848.5,1095.6 399,942.1 -17.6,1095.6 -4.4,615.4 -493.4,459.7 					"/>
					<polygon class="st5" points="-100.4,322.3 -147.3,-49.4 211.8,131 511.3,-157.7 619.5,188.8 958.7,390.8 704.3,656.1 
						698.9,1007.9 329,881.6 -13.8,1007.9 -3,612.8 -405.3,484.7 					"/>
					<polygon class="st6" points="-78.5,388.1 -115.1,98.1 165,238.9 398.6,13.7 483.1,283.9 747.7,441.6 549.3,648.5 545,922.9 
						256.5,824.4 -10.9,922.9 -2.5,614.7 -316.3,514.8 					"/>
					<polygon class="st7" points="-61.2,443.3 -88.6,226.5 120.9,331.7 295.6,163.3 358.8,365.4 556.7,483.3 408.3,638.1 
						405.1,843.4 189.3,769.7 -10.7,843.4 -4.4,612.8 -239.1,538.1 					"/>
					<polygon class="st8" points="-42.2,494.5 -61.3,343.3 84.7,416.7 206.5,299.3 250.5,440.2 388.5,522.3 285,630.2 282.8,773.2 
						132.4,721.9 -7,773.2 -2.6,612.6 -166.2,560.5 					"/>
					<polygon class="st9" points="-31.5,531.7 -44.7,427.6 55.9,478.1 139.9,397.2 170.2,494.3 265.2,550.9 194,625.2 192.4,723.8 
						88.8,688.4 -7.3,723.8 -4.2,613.1 -117,577.2 					"/>
					<polygon class="st10" points="-19.5,567.3 -26.8,509.3 29.2,537.5 75.9,492.4 92.8,546.5 145.7,578 106,619.3 105.1,674.2 
						47.5,654.5 -6,674.2 -4.3,612.6 -67.1,592.6 					"/>
				</g>
			</g>
			<g class="st11">
				<path class="st12" d="M216.7,556.7c0-10.9-3.8-19.3-11.5-25.4c-7.7-6.1-21.2-12.3-40.5-18.8c-19.3-6.5-35.1-12.8-47.4-18.8
					c-39.9-19.6-59.8-46.5-59.8-80.8c0-17.1,5-32.1,14.9-45.1c9.9-13,24-23.2,42.2-30.4c18.2-7.3,38.6-10.9,61.3-10.9
					c22.1,0,42,3.9,59.5,11.8c17.5,7.9,31.2,19.1,40.9,33.7c9.7,14.6,14.6,31.3,14.6,50h-74c0-12.5-3.8-22.3-11.5-29.2
					c-7.7-6.9-18.1-10.4-31.2-10.4c-13.3,0-23.7,2.9-31.4,8.8c-7.7,5.9-11.5,13.3-11.5,22.3c0,7.9,4.2,15,12.7,21.5
					c8.5,6.4,23.3,13,44.6,19.9c21.3,6.8,38.8,14.2,52.4,22.1c33.3,19.2,49.9,45.6,49.9,79.3c0,26.9-10.1,48.1-30.4,63.4
					c-20.3,15.4-48.1,23-83.5,23c-24.9,0-47.5-4.5-67.8-13.4c-20.2-8.9-35.4-21.2-45.7-36.8C53.3,577,48.2,559,48.2,538.7h74.4
					c0,16.5,4.3,28.6,12.8,36.5C144,583,157.8,587,177,587c12.3,0,22-2.6,29.1-7.9C213.2,573.7,216.7,566.3,216.7,556.7z"/>
				<path class="st12" d="M408.1,638.5h-74V330.7h74V638.5z"/>
				<path class="st12" d="M533.9,534.1v104.4h-74.2V330.7h122.8c23.5,0,44.4,4.3,62.5,13c18.1,8.7,32.1,21,42.1,37
					c9.9,16,14.9,34.1,14.9,54.4c0,30-10.8,54-32.2,72c-21.5,18-51,27-88.5,27H533.9z M533.9,476.8h48.6c14.4,0,25.3-3.6,32.9-10.8
					c7.5-7.2,11.3-17.3,11.3-30.4c0-14.4-3.9-25.9-11.6-34.5c-7.8-8.6-18.3-13-31.7-13.1h-49.5V476.8z"/>
				<path class="st12" d="M900.3,556.7c0-10.9-3.8-19.3-11.5-25.4c-7.7-6.1-21.2-12.3-40.5-18.8c-19.3-6.5-35.1-12.8-47.4-18.8
					c-39.9-19.6-59.8-46.5-59.8-80.8c0-17.1,5-32.1,14.9-45.1c9.9-13,24-23.2,42.2-30.4c18.2-7.3,38.6-10.9,61.3-10.9
					c22.1,0,42,3.9,59.5,11.8c17.5,7.9,31.2,19.1,40.9,33.7c9.7,14.6,14.6,31.3,14.6,50h-74c0-12.5-3.8-22.3-11.5-29.2
					c-7.7-6.9-18.1-10.4-31.2-10.4c-13.3,0-23.7,2.9-31.4,8.8c-7.7,5.9-11.5,13.3-11.5,22.3c0,7.9,4.2,15,12.7,21.5
					c8.5,6.4,23.3,13,44.6,19.9c21.3,6.8,38.8,14.2,52.4,22.1c33.3,19.2,49.9,45.6,49.9,79.3c0,26.9-10.1,48.1-30.4,63.4
					c-20.3,15.4-48.1,23-83.5,23c-24.9,0-47.5-4.5-67.8-13.4c-20.2-8.9-35.4-21.2-45.7-36.8c-10.2-15.6-15.3-33.5-15.3-53.8h74.4
					c0,16.5,4.3,28.6,12.8,36.5c8.5,7.8,22.4,11.7,41.5,11.7c12.3,0,22-2.6,29.1-7.9C896.7,573.7,900.3,566.3,900.3,556.7z"/>
			</g>
		</g>
	</g>
</g>
</svg>
