<svg xmlns="http://www.w3.org/2000/svg" xmlns:xlink="http://www.w3.org/1999/xlink" viewBox="0 0 2142.4 1830.68"><defs><style>.cls-1{fill:none;}.cls-2{clip-path:url(#clip-path);}.cls-3{clip-path:url(#clip-path-2);}.cls-4{fill:#00e2cc;}.cls-5{fill:#e984ef;}.cls-6{fill:#00b2ff;}.cls-7{fill:#ff9d00;}.cls-8{fill:#b820ff;}.cls-9{fill:#f2da00;}.cls-10{fill:#ff402c;}.cls-11{fill:#65c949;}.cls-12{fill:#0086b8;}.cls-13{font-size:433px;fill:#0f0f0f;font-family:Roboto-Black, Roboto;}</style><clipPath id="clip-path"><rect class="cls-1" x="635.26" y="596.31" width="1024" height="1024" rx="99.52" ry="99.52"/></clipPath><clipPath id="clip-path-2"><rect class="cls-1" x="635.8" y="596.5" width="1024" height="1024"/></clipPath></defs><title>logo_1</title><g id="Layer_2" data-name="Layer 2"><g id="Layer_1-2" data-name="Layer 1"><g class="cls-2"><g class="cls-3"><polygon class="cls-4" points="478.92 753.81 405.24 170.03 969.18 453.42 1439.6 0 1609.64 544.1 2142.4 861.5 1742.83 1278.07 1734.33 1830.68 1153.38 1632.31 614.95 1830.68 631.95 1210.06 0 1008.86 478.92 753.81"/><polygon class="cls-5" points="495.58 803.6 429.72 281.82 933.77 535.11 1354.24 129.85 1506.21 616.17 1982.4 899.86 1625.26 1272.19 1617.66 1766.12 1098.41 1588.81 617.16 1766.12 632.36 1211.4 67.51 1031.57 495.58 803.6"/><polygon class="cls-6" points="512.97 858.86 455.96 407.18 892.3 626.44 1256.29 275.62 1387.85 696.61 1800.07 942.18 1490.9 1264.51 1484.32 1692.08 1034.83 1538.59 618.22 1692.08 631.38 1211.88 142.41 1056.2 512.97 858.86"/><polygon class="cls-7" points="535.42 918.76 488.51 547.08 847.56 727.51 1147.07 438.82 1255.33 785.25 1594.54 987.33 1340.13 1252.56 1334.72 1604.39 964.84 1478.09 622.03 1604.39 632.85 1209.26 230.5 1081.15 535.42 918.76"/><polygon class="cls-8" points="557.32 984.59 520.72 694.64 800.81 835.39 1034.45 610.2 1118.9 880.43 1383.51 1038.07 1185.05 1244.97 1180.83 1519.43 892.3 1420.91 624.88 1519.43 633.32 1211.19 319.45 1111.26 557.32 984.59"/><polygon class="cls-9" points="574.56 1039.83 547.19 822.97 756.68 928.24 931.43 759.81 994.6 961.93 1192.51 1079.83 1044.07 1234.59 1040.91 1439.87 825.11 1366.18 625.09 1439.87 631.4 1209.32 396.65 1134.58 574.56 1039.83"/><polygon class="cls-10" points="593.61 1090.96 574.54 939.83 720.53 1013.2 842.31 895.82 886.33 1036.67 1024.25 1118.84 920.81 1226.68 918.61 1369.74 768.22 1318.38 628.83 1369.74 633.23 1209.07 469.63 1156.99 593.61 1090.96"/><polygon class="cls-11" points="604.29 1128.21 591.14 1024.07 691.74 1074.62 775.66 993.74 805.99 1090.8 901.03 1147.42 829.75 1221.73 828.23 1320.31 724.6 1284.92 628.55 1320.31 631.59 1209.6 518.85 1173.71 604.29 1128.21"/><polygon class="cls-12" points="616.29 1163.79 608.97 1105.83 664.97 1133.96 711.67 1088.95 728.55 1142.97 781.45 1174.48 741.78 1215.84 740.93 1270.71 683.25 1251.01 629.79 1270.71 631.48 1209.09 568.74 1189.11 616.29 1163.79"/></g></g><text class="cls-13" transform="translate(670.5 1235.04)">SIPS</text></g></g></svg>